<?xml version="1.0" encoding="utf-8"?>
<!-- Generator: Adobe Illustrator 13.0.2, SVG Export Plug-In . SVG Version: 6.00 Build 14948)  -->
<!DOCTYPE svg PUBLIC "-//W3C//DTD SVG 1.1//EN" "http://www.w3.org/Graphics/SVG/1.1/DTD/svg11.dtd">
<svg version="1.1" id="Layer_1" xmlns="http://www.w3.org/2000/svg" xmlns:xlink="http://www.w3.org/1999/xlink" x="0px" y="0px"
	 width="718.957px" height="699.912px" viewBox="0 0 718.957 699.912" enable-background="new 0 0 718.957 699.912"
	 xml:space="preserve">
<g>
	<g>
		<path d="M635.962,193.977c2.789,8.354,18.414,17.772-1,17.998c-8.898,0.103-17.693-7.958-26.996-10.999
			c-13.523-4.42-47.641-12.476-59.992-3c-11.594,22.637-9.934,48.678-17.998,71.99c-2.977,8.602-9.33,18.71-14,27.997
			c-4.684,9.316-9.096,20.47-13.998,27.997c-9.627,14.783-26.658,23.396-35.994,36.996c0,6.665,0,13.331,0,19.997
			c-1.436-1.231-1.895-3.438-2-5.999c-2.863,13.804-7.762,25.569-9.998,39.995c-2.605-2.673-0.201-8.814,0-11.999
			c-4.385,7.022-5.76,15.169-10,25.998c-0.975-4.333,3.035-12.279,3-18.997c-1.961,3.37-3,7.664-3.998,11.997
			c-2.58-1.373-0.223-6.126,0-7.999c-2.924,12.364-12.072,21.25-16.998,25.997c-1.352-3.537,6.139-5.737,2.998-11.999
			c-3.318,0.681-1.121,6.879-3.998,7.999c-1.918-0.111,1.174-3.348,0-5.999c-6.535,4.071-2.068,17.614-9,18.999
			c3.723-5.022,0.836-8.007,0-11.001c-2.262,2.073-1.229,7.437-3,10c-0.629-3.218-0.58-6.21-1-11.999
			c-2.033,11.632-7.611,19.72-15.996,24.997c-5.152,19.105-12.424,37.842-14,64.992c-1.58,27.251,5.16,65.754,14.998,80.989
			c2.93,4.534,7.934,6.813,11,9.999c2.332,0,4.666,0,6.998,0c5.094,3.251,11.574,10.406,10,16.999
			c-11.088,10.981-33.859-2.191-39.996-12c-0.115-4.883,0.539-10.537-0.998-13.998c-1.924-2.41-4.697-3.97-7.002-5.999
			c-7.857-20.857-6.256-45.018-9.998-67.992c-3.219-19.768-12.957-33.222-8.998-57.992c-0.883,30.398-15.166,54.441-12.998,90.988
			c1.322,22.306,6.609,63.726,14.998,77.99c2.719,4.625,7.631,7.66,10.998,10.999c3.055,0.723,3.643-1.022,5.998-1
			c4.029,5.151,13.17,9.15,12,16.998c-2.477,16.601-40.561-0.931-42.994-11.998c0.777-6.834,0.65-9.24-1-14.999
			c-15.221-9.056-12.551-44.165-14.998-67.991c-2.045-19.906-11.123-39.052-12-49.992c-0.297-3.716,2.059-8.219,2-12
			c-0.133-8.563-4.262-18.424-5-27.996c-1.494-19.411,1.465-37.264-5-51.995c-1.516,2.484-1.93,6.07-2,10
			c-3.545-1.12-0.695-8.636-3-10.999c-3.348,3.181-0.656,6.5-2,11.999c-3.92,0.921-0.725-5.273-3-5.999
			c-2.236,0.432-0.404,4.929-1,6.998c-2.52-2.812-4.256-6.408-5-10.998c-3.484,0.516-1.466,6.533-2,9.999
			c-2.054-0.278-1.996-2.67-3-4c-1.621-0.715-1.621,4.714,0,4c-3.211,1.51-4.595-7.376-7.999-8.999
			c0.485,4.515,3.195,6.805,4,10.999c-2.323-0.677-2.677-3.322-5-4.001c-0.125,4.125,1.738,6.263,1,11
			c-3.39-4.608-5.678-10.32-8.999-14.998c-1.633-0.45-1.633,5.449,0,4.999c-3.627,1.266-4.814-8.494-8.999-10
			c0.934,5.067,2.802,9.198,4,14.001c-1.313-0.354-1.572-1.762-3-2.002c-0.059,4.394,0.402,8.266,2,10.999
			c-3.2,1.168-6.111-6.527-5.999-11.998c-3.748,0.789-0.062,3.497-2,4.999c-2.634-5.364-4.654-11.343-7.999-15.999
			c-1.68,3.714,4.617,8.024,4,14.001c-3.063-0.937-2.457-5.544-5-7.001c-2.168-0.168-0.453,3.547-1,4.999
			c-1.851-2.813-2.747-6.584-4-9.998c-0.616,6.034-1.867,9.119-1,16.999c-2.327-5.34-5.497-9.835-6.999-16
			c-2.294,2.039-0.362,8.306-1,11.999c-2.437-3.229-3.972-7.358-3.999-12.998c-2.983,0.018,1.41,7.41-3,5.999
			c0.123-4.455-2.467-6.197-3-9.998c-0.393,5.202-2.764,9.151,0,14.998c-4.168-3.379-8.667-8.92-11.999-15.999
			c-2.042,2.108,1.24,7.377,0,11.998c-1.342-0.655-1.862-2.137-2-3.998c-2.354,1.459,0.047,6.539,1,7.999
			c-2.353-0.341-5.74-8.237-6.999-13c-1.759,0.242-2.28,1.723-2,4.001c-2.284-7.474-5.435-12.885-7.999-21.997
			c-1.752,3.181,2.355,9.567,0,13.998c-2.509-4.49-4.006-9.992-5-15.998c-1.95,8.836-1.09,2.686-5,7.999
			c-1.581-1.752-1.338-5.327-2-7.999c-3.164,7.328-3.244-6.765-3-11.999c-1.737,3.596-2.922,7.743-3,12.998
			c-2.873-10.34-4.728-15.623-5.999-26.996c-12.538,9.53-23.574,23.683-33.996,37.995c-1.238,20.717,0.197,43.189,5.999,62.992
			c5.61,19.149,6.493,29.252,18.998,36.997c8.357-1.943,13.823,3.854,13.999,12.997c-1.032,2.968-5.464,2.533-6,5.999
			c-19.652,0.987-30.516-6.813-29.996-25.997c-9.524-3.738-9.412-16.091-11.999-27.996c-5.162-23.759-19.408-50.167-25.997-69.991
			c-12.726,9.526-13.721,28.294-11.998,53.993c2.089,31.167,9.57,67.126,22.997,80.99c9.929-2.51,17.299,6.277,13.998,16.995
			c-3.339-3.219-4.132,1.745-5.999,3.002c-15.495,1.163-24.497-4.166-28.997-13.998c1.417-11.416-3.134-16.863-8.999-20.997
			c3.783-41.976-18.365-72.115-13.998-109.987c1.08-9.364,7.426-14.521,9.999-21.995c7.646-22.217-2.411-46.252-2-72.992
			c-5.842,9.823-9.964,21.365-19.998,26.996c-6.062-14.354,2.677-28.828,4-46.995c0.448-6.151-1.313-12.302-1-17.996
			c2.385-43.391,34.857-64.257,66.992-80.99c78.933-8.342,149.459,3.5,203.976,25.997c14.453,5.965,31.293,11.908,46.994,20.997
			c20.68,11.971,38.078,26.771,64.992,18.998c49.674-29.65,38.799-119.846,68.99-168.979c-9.17-13.382-23.807-28.797-21.998-49.994
			c1.15-13.486,13.822-30.472,21.998-37.995c14.381,12.281,13.18,40.146,18.996,60.993c3.277-28.386,11.65-51.677,32.996-61.993
			c-1.389,18.276-5.758,33.57-4.998,53.994c32.447,3.548,46.877,25.113,65.99,41.995c5.869,21.795,27.855,27.471,34.996,47.994
			c-0.564,2.436-0.855,5.143-4,5C669.322,190.236,648.794,204.342,635.962,193.977z M400.992,452.944
			c1.426-3.288,6.75-10.908,2-13.998c1.303,10.313-8.512,14.808-6,22.998c1.92-3.108,6.955-8.341,6-10.998
			C402.779,452.066,401.88,452.503,400.992,452.944z M435.988,421.948c-1.037,3.329-7.521,6.433-4,10.999
			C434.396,427.053,435.283,428.793,435.988,421.948z"/>
		<path fill="#FFFFFF" d="M-19.956,10c232.973,0,465.942,0,698.913,0c0,233.298,0,466.617,0,699.911c-233.299,0-466.617,0-699.913,0
			c0-232.307,0-464.603,0-696.912C-21.042,11.581-21.121,10.168-19.956,10z M655.958,176.979c3.145,0.144,3.436-2.564,4-5
			c-7.139-20.522-29.127-26.199-34.996-47.994c-19.113-16.882-33.543-38.446-65.99-41.995c-0.76-20.423,3.609-35.717,4.998-53.994
			c-21.346,10.315-29.719,33.606-32.996,61.993c-5.816-20.846-4.613-48.712-18.996-60.993c-8.176,7.523-20.848,24.508-21.998,37.995
			c-1.809,21.197,12.828,36.612,21.998,49.994c-30.191,49.133-19.316,139.328-68.99,168.979
			c-26.914,7.774-44.312-7.025-64.992-18.998c-15.701-9.089-32.541-15.031-46.994-20.996
			c-54.515-22.497-125.042-34.34-203.975-25.997c-32.135,16.733-64.607,37.6-66.992,80.989c-0.313,5.694,1.448,11.846,1,17.997
			c-1.322,18.167-10.061,32.642-4,46.995c10.033-5.631,14.156-17.173,19.998-26.996c-0.412,26.74,9.645,50.775,2,72.992
			c-2.572,7.474-8.918,12.631-9.999,21.995c-4.367,37.872,17.781,68.012,13.998,109.987c5.865,4.134,10.416,9.581,8.999,20.997
			c4.5,9.832,13.502,15.161,28.997,13.998c1.867-1.257,2.66-6.222,5.999-3.002c3.301-10.719-4.069-19.505-13.998-16.995
			c-13.427-13.864-20.908-49.823-22.997-80.99c-1.723-25.699-0.728-44.467,11.998-53.993c6.589,19.824,20.835,46.232,25.997,69.991
			c2.586,11.905,2.475,24.258,11.999,27.996c-0.521,19.184,10.344,26.984,29.996,25.997c0.535-3.466,4.967-3.031,6-5.999
			c-0.176-9.144-5.641-14.94-13.999-12.997c-12.504-7.745-13.387-17.848-18.998-36.997c-5.802-19.803-7.237-42.276-5.999-62.992
			c10.421-14.313,21.458-28.465,33.996-37.995c1.271,11.373,3.126,16.656,5.999,26.996c0.077-5.255,1.263-9.402,3-12.998
			c-0.244,5.234-0.164,19.327,3,11.999c0.661,2.672,0.418,6.247,2,7.999c3.91-5.314,3.049,0.837,5-7.999
			c0.993,6.006,2.49,11.508,5,15.998c2.355-4.431-1.752-10.817,0-13.998c2.564,9.112,5.715,14.523,7.999,21.997
			c-0.28-2.279,0.241-3.759,2-4.001c1.258,4.762,4.646,12.659,6.999,13c-0.952-1.46-3.354-6.54-1-7.999
			c0.137,1.861,0.658,3.342,2,3.998c1.24-4.621-2.042-9.89,0-11.998c3.331,7.079,7.83,12.62,11.999,15.999
			c-2.764-5.847-0.393-9.796,0-14.998c0.532,3.8,3.122,5.543,3,9.998c4.41,1.411,0.017-5.981,3-5.999
			c0.027,5.639,1.562,9.771,3.999,12.998c0.638-3.694-1.294-9.96,1-11.999c1.502,6.165,4.672,10.66,6.999,16
			c-0.867-7.88,0.384-10.965,1-16.999c1.253,3.414,2.148,7.185,4,9.998c0.547-1.452-1.168-5.167,1-4.999
			c2.542,1.457,1.936,6.064,5,7.001c0.617-5.977-5.68-10.287-4-14.001c3.344,4.656,5.365,10.635,7.999,15.999
			c1.938-1.502-1.748-4.21,2-4.999c-0.112,5.47,2.799,13.166,5.999,11.998c-1.598-2.734-2.058-6.605-2-10.999
			c1.427,0.24,1.686,1.646,3,2.002c-1.197-4.803-3.066-8.934-4-14.001c4.185,1.506,5.372,11.265,8.999,10
			c-1.633,0.45-1.633-5.45,0-4.999c3.321,4.677,5.609,10.389,8.999,14.998c0.738-4.738-1.125-6.875-1-11
			c2.323,0.678,2.677,3.324,5,4.001c-0.805-4.195-3.515-6.485-4-10.999c3.404,1.623,4.788,10.508,7.999,8.999
			c-1.621,0.714-1.621-4.715,0-4c1.004,1.33,0.945,3.721,3,4c0.533-3.466-1.484-9.484,2-9.999c0.743,4.59,2.48,8.187,5,10.998
			c0.596-2.07-1.234-6.567,1-6.998c2.275,0.726-0.92,6.92,3,5.999c1.344-5.499-1.35-8.819,2-11.999
			c2.305,2.363-0.545,9.879,3,10.999c0.07-3.93,0.484-7.516,2-10c6.463,14.731,3.504,32.584,5,51.995
			c0.738,9.572,4.867,19.432,5,27.996c0.061,3.781-2.297,8.284-2,12c0.875,10.939,9.955,30.086,12,49.992
			c2.447,23.825-0.223,58.937,14.998,67.991c1.65,5.759,1.777,8.164,1,14.998c2.436,11.068,40.52,28.6,42.994,11.998
			c1.17-7.847-7.971-11.846-12-16.998c-2.355-0.021-2.943,1.724-5.998,1c-3.367-3.338-8.279-6.373-10.998-10.998
			c-8.389-14.266-13.676-55.686-14.998-77.99c-2.168-36.547,12.115-60.59,12.998-90.988c-3.959,24.771,5.779,38.225,8.998,57.992
			c3.742,22.976,2.141,47.135,9.998,67.992c2.305,2.028,5.078,3.589,7.002,5.999c1.537,3.461,0.883,9.114,0.998,13.998
			c6.137,9.809,28.908,22.981,39.996,12c1.574-6.593-4.906-13.748-10-16.999c-2.332,0-4.666,0-6.998,0
			c-3.066-3.186-8.07-5.466-11-9.999c-9.838-15.235-16.578-53.738-14.998-80.989c1.576-27.15,8.848-45.887,14-64.992
			c8.385-5.278,13.963-13.365,15.996-24.997c0.42,5.789,0.371,8.781,1,11.999c1.771-2.564,0.74-7.927,3-10
			c0.836,2.994,3.723,5.979,0,11.001c6.932-1.385,2.465-14.928,9-18.999c1.174,2.651-1.918,5.887,0,5.999
			c2.877-1.12,0.68-7.318,3.998-7.999c3.141,6.261-4.35,8.462-2.998,11.999c4.926-4.747,14.076-13.633,16.998-25.997
			c-0.223,1.873-2.58,6.626,0,7.999c0.998-4.333,2.037-8.627,3.998-11.997c0.037,6.718-3.975,14.664-3,18.997
			c4.242-10.829,5.617-18.977,10-25.998c-0.201,3.184-2.605,9.326,0,11.999c2.238-14.426,7.135-26.192,9.998-39.995
			c0.105,2.561,0.564,4.767,2,5.999c0-6.666,0-13.332,0-19.997c9.336-13.601,26.369-22.212,35.994-36.996
			c4.902-7.527,9.314-18.68,14-27.997c4.67-9.288,11.021-19.396,13.998-27.997c8.064-23.312,6.404-49.354,17.998-71.99
			c12.352-9.477,46.469-1.422,59.992,3c9.303,3.04,18.1,11.101,26.996,10.998c19.414-0.225,3.789-9.643,1-17.997
			C648.794,204.342,669.322,190.236,655.958,176.979z"/>
		<path fill="#FFFFFF" d="M402.992,450.946c0.955,2.657-4.08,7.89-6,10.998c-2.512-8.19,7.303-12.685,6-22.998
			c4.75,3.09-0.574,10.71-2,13.998C401.88,452.503,402.779,452.066,402.992,450.946z"/>
		<path fill="#FFFFFF" d="M431.988,432.947c-3.521-4.566,2.963-7.67,4-10.999C435.283,428.793,434.396,427.053,431.988,432.947z"/>
	</g>
</g>
</svg>

